# xmcd CD database file
#
# Track frame offsets:
#	150
#	18725
#	44975
#
# Disc length: 943 seconds
#
# Revision: 0
# Processed by: cddbd v1.5.1PL0 Copyright (c) Steve Scherf et al.
# Submitted via: CDex 1.51
#
DISCID=2803ad03
DTITLE=Ｓｕｎｂｒａｉｎ - 冒険王ビィト
DYEAR=2005
DGENRE=Anime
TTITLE0=wish men
TTITLE1=エヴァネス
TTITLE2=emotion(rainbsun mix)
EXTD=YEAR: 2005
EXTT0=
EXTT1=
EXTT2=
PLAYORDER=
